<svg preserveAspectRatio="none" overflow="visible" style="display: block;" width="17.5" height="20" viewBox="0 0 17.5 20" fill="none" xmlns="http://www.w3.org/2000/svg">
<g id="Img">
<path id="Vector" d="M7.26953 2.03516C6.61328 1.52734 5.80859 1.25 4.98047 1.25C2.91797 1.25 1.25 2.91797 1.25 4.98047V5.22266C1.25 5.83984 1.39453 6.44531 1.66797 7L2.58594 8.83984C2.76172 9.1875 2.88281 9.55859 2.95312 9.94141L4.38672 17.9805C4.46484 18.418 4.83984 18.7383 5.28125 18.7539C5.72266 18.7695 6.11719 18.4648 6.21875 18.0352L7.34766 13.2969C7.50781 12.6445 8.08594 12.1875 8.75 12.1875C9.41406 12.1875 9.99219 12.6445 10.1484 13.293L11.2773 18.0313C11.3789 18.4648 11.7734 18.7656 12.2148 18.75C12.6563 18.7344 13.0313 18.4141 13.1094 17.9766L14.543 9.9375C14.6133 9.55469 14.7344 9.18359 14.9102 8.83594L15.8281 6.99609C16.1055 6.44531 16.2461 5.83594 16.2461 5.21875V5.13672C16.2461 2.98828 14.5039 1.24609 12.3555 1.24609C11.4141 1.24609 10.5039 1.58984 9.79297 2.20703L9.66797 2.31641L10.4297 2.91016C10.7031 3.12109 10.75 3.51563 10.5391 3.78906C10.3281 4.0625 9.93359 4.10938 9.66016 3.89844L8.70703 3.15625L7.26172 2.03125L7.26953 2.03516Z" fill="#3695B9"/>
</g>
</svg>
